<svg xmlns="http://www.w3.org/2000/svg" width="185.5" height="181" viewBox="0 0 185.5 181"><defs><style>.a{fill:#133353;}.b,.c,.d,.e{fill:#fef8f8;}.b,.c{stroke:#f5f5f5;}.b{font-size:88px;font-family:SegoeUI-SemiboldItalic, Segoe UI;font-weight:600;font-style:italic;}.f,.h{stroke:none;}.g{fill:none;}.h{fill:#f5f5f5;}</style></defs><rect class="a" width="185" height="181" rx="11"/><g transform="translate(5 17.616)"><text class="b" transform="translate(56.5 137.769)"><tspan x="0" y="0">HZ</tspan></text><g class="c" transform="translate(16.5 123.769)"><rect class="f" width="47" height="12"/><rect class="g" x="0.5" y="0.5" width="46" height="11"/></g><g class="c" transform="translate(12.5 51.769)"><rect class="f" width="12" height="84"/><rect class="g" x="0.5" y="0.5" width="11" height="83"/></g><g class="c" transform="translate(12.5 45.769)"><rect class="f" width="32" height="12"/><rect class="g" x="0.5" y="0.5" width="31" height="11"/></g><g class="d" transform="translate(32.5 25.769)"><path class="f" d="M 11.5 88.12948608398438 L 0.5 81.71281433105469 L 0.5 -5.190981388092041 L 11.5 0.3090187609195709 L 11.5 88.12948608398438 Z"/><path class="h" d="M 1 -4.381965637207031 L 1 81.42562866210938 L 11 87.25896453857422 L 11 0.6180343627929688 L 1 -4.381965637207031 M 0 -6 L 12 0 L 12 89 L 0 82 L 0 -6 Z"/></g><g class="d" transform="translate(4 66.769)"><path class="f" d="M 52.05370712280273 11.5 L 3.432292699813843 11.5 L -3.120177984237671 0.5 L 44.55061721801758 0.5 L 52.05370712280273 11.5 Z"/><path class="h" d="M -2.240345001220703 1 L 3.716445922851562 11 L 51.10741806030273 11 L 44.28642654418945 1 L -2.240345001220703 1 M -4 0 L 44.81481170654297 0 L 53 12 L 3.148151397705078 12 L -4 0 Z"/></g><path class="e" d="M32.634,39.19l6.691-7.431,35.767,32.2A5.5,5.5,0,0,1,75.5,71.73l-3.011,3.344Zm-8.189,3.181L18.7,37.113l-1.521-1.481c-.31-.3-.413-.579.007-1.021.485-.5.974-1.012,1.463-1.515.544-.563,1.091-1.138,1.629-1.7a.856.856,0,0,1,.645-.293c.142-.005,1.416-.022,1.767-.031l.11,0a1.675,1.675,0,0,0,1.837-1.953l0-.325c0-.284,0-.562-.027-.843a1.238,1.238,0,0,1,.411-1.013c1.645-1.769,3.587-3.869,5.515-6.014a10.354,10.354,0,0,1,2.943-2.268,13.14,13.14,0,0,1,7.709-1.642A11.924,11.924,0,0,1,44.9,18a.705.705,0,0,1-.194,1.344A10.906,10.906,0,0,0,41,20.478a6.769,6.769,0,0,0-3.847,6.6,8.072,8.072,0,0,0,1.226,3.65c-.728.768-1.471,1.557-2.2,2.329-.626.658-1.231,1.308-1.793,1.9a8.772,8.772,0,0,0-1.139-.9,3.005,3.005,0,0,0-2.838-.059,3.222,3.222,0,0,0-.776.611,2.953,2.953,0,0,0-.424,3.848c-.255.256-.509.516-.764.77-1.019,1.04-2.078,2.109-3.141,3.116a.781.781,0,0,1-.377.238h-.009A.98.98,0,0,1,24.445,42.371Z" transform="translate(56.178 -16.945)"/><path class="e" d="M0,0H31.969a7,7,0,0,1,7,7v3a0,0,0,0,1,0,0H0a0,0,0,0,1,0,0V0A0,0,0,0,1,0,0Z" transform="translate(76.879 28.923) rotate(133)"/><g transform="translate(-60.214 -60.515)"><path class="e" d="M364.931,86.71v8.261h-1.593V86.71c0-1.376.8-1.376.8-1.376s.8,0,.8,1.376Zm3.218,31.391a4.261,4.261,0,0,1-1.169,2.741,3.89,3.89,0,0,1-5.684,0,4.275,4.275,0,0,1-1.171-2.741H358.4a5.735,5.735,0,1,0,11.469,0Z" transform="translate(-217.158)"/><path class="e" d="M428.259,300.259v3.186h3.186v-3.186Zm0-1.593h3.186a1.593,1.593,0,0,1,1.593,1.593v3.186a1.593,1.593,0,0,1-1.593,1.593h-3.186a1.593,1.593,0,0,1-1.593-1.593v-3.186a1.593,1.593,0,0,1,1.593-1.593Z" transform="translate(-282.875 -203.277)"/><path class="e" d="M144.334,428.1q-.1.079-.187.164h-.528a1.125,1.125,0,0,0,.742-.185Zm-.714-1.429h6.717c.232,0,.993.714,1.7,1.593l9.875,11.151c.412.4.412,1.593-.421,1.593H132.579c-.874,0-.874-1.123-.419-1.593l9.763-11.151c.7-.879,1.464-1.593,1.7-1.593Z" transform="translate(0 -321.899)"/></g></g></svg>