<svg id="组件_2_5" data-name="组件 2 – 5" xmlns="http://www.w3.org/2000/svg" width="181.5" height="160.769" viewBox="0 0 181.5 160.769">
  <g id="组件_1_2" data-name="组件 1 – 2">
    <text id="HZ" transform="translate(57.5 137.769)" fill="#fff" stroke="#f5f5f5" stroke-width="1" font-size="88" font-family="SegoeUI-SemiboldItalic, Segoe UI" font-weight="600" font-style="italic"><tspan x="0" y="0">HZ</tspan></text>
    <g id="矩形_1" data-name="矩形 1" transform="translate(17.5 123.769)" fill="#fff" stroke="#f5f5f5" stroke-width="1">
      <rect width="47" height="12" stroke="none"/>
      <rect x="0.5" y="0.5" width="46" height="11" fill="none"/>
    </g>
    <g id="矩形_2" data-name="矩形 2" transform="translate(13.5 51.769)" fill="#fff" stroke="#f5f5f5" stroke-width="1">
      <rect width="12" height="84" stroke="none"/>
      <rect x="0.5" y="0.5" width="11" height="83" fill="none"/>
    </g>
    <g id="矩形_3" data-name="矩形 3" transform="translate(13.5 45.769)" fill="#fff" stroke="#f5f5f5" stroke-width="1">
      <rect width="32" height="12" stroke="none"/>
      <rect x="0.5" y="0.5" width="31" height="11" fill="none"/>
    </g>
    <g id="路径_5" data-name="路径 5" transform="translate(33.5 21.769)" fill="#fff">
      <path d="M 11.5 91.11557769775391 L 0.5 84.49627685546875 L 0.5 -7.987331390380859 L 11.5 0.4363584816455841 L 11.5 91.11557769775391 Z" stroke="none"/>
      <path d="M 1 -6.97467041015625 L 1 84.21360778808594 L 11 90.23115539550781 L 11 0.6832275390625 L 1 -6.97467041015625 M 0 -9 L 12 0.189483642578125 L 12 92 L 0 84.77894592285156 L 0 -9 Z" stroke="none" fill="#f5f5f5"/>
    </g>
    <g id="路径_6" data-name="路径 6" transform="translate(5 66.769)" fill="#fff">
      <path d="M 53.05370712280273 11.5 L 2.432292699813843 11.5 L -4.12017822265625 0.5 L 45.55061721801758 0.5 L 53.05370712280273 11.5 Z" stroke="none"/>
      <path d="M -3.240345001220703 1 L 2.716445922851562 11 L 52.10741806030273 11 L 45.28642654418945 1 L -3.240345001220703 1 M -5 0 L 45.81481170654297 0 L 54 12 L 2.148151397705078 12 L -5 0 Z" stroke="none" fill="#f5f5f5"/>
    </g>
    <path id="联合_1" data-name="联合 1" d="M32.634,39.19l6.691-7.431,35.767,32.2A5.5,5.5,0,0,1,75.5,71.73l-3.011,3.344Zm-8.189,3.181L18.7,37.113l-1.521-1.481c-.31-.3-.413-.579.007-1.021.485-.5.974-1.012,1.463-1.515.544-.563,1.091-1.138,1.629-1.7a.856.856,0,0,1,.645-.293c.142-.005,1.416-.022,1.767-.031l.11,0a1.675,1.675,0,0,0,1.837-1.953l0-.325c0-.284,0-.562-.027-.843a1.238,1.238,0,0,1,.411-1.013c1.645-1.769,3.587-3.869,5.515-6.014a10.354,10.354,0,0,1,2.943-2.268,13.14,13.14,0,0,1,7.709-1.642A11.924,11.924,0,0,1,44.9,18a.705.705,0,0,1-.194,1.344A10.906,10.906,0,0,0,41,20.478a6.769,6.769,0,0,0-3.847,6.6,8.072,8.072,0,0,0,1.226,3.65c-.728.768-1.471,1.557-2.2,2.329-.626.658-1.231,1.308-1.793,1.9a8.772,8.772,0,0,0-1.139-.9,3.005,3.005,0,0,0-2.838-.059,3.222,3.222,0,0,0-.776.611,2.953,2.953,0,0,0-.424,3.848c-.255.256-.509.516-.764.77-1.019,1.04-2.078,2.109-3.141,3.116a.781.781,0,0,1-.377.238h-.009A.98.98,0,0,1,24.445,42.371Z" transform="translate(57.178 -16.945)" fill="#fff"/>
    <path id="矩形_11" data-name="矩形 11" d="M0,0H31.969a7,7,0,0,1,7,7v3a0,0,0,0,1,0,0H0a0,0,0,0,1,0,0V0A0,0,0,0,1,0,0Z" transform="translate(77.879 28.923) rotate(133)" fill="#fff"/>
  </g>
  <g id="吊灯" transform="translate(-59.214 -58.515)">
    <path id="路径_2" data-name="路径 2" d="M364.931,86.71v8.261h-1.593V86.71c0-1.376.8-1.376.8-1.376s.8,0,.8,1.376Zm3.218,31.391a4.261,4.261,0,0,1-1.169,2.741,3.89,3.89,0,0,1-5.684,0,4.275,4.275,0,0,1-1.171-2.741H358.4a5.735,5.735,0,1,0,11.469,0Z" transform="translate(-217.158)" fill="#fff"/>
    <path id="路径_3" data-name="路径 3" d="M428.259,300.259v3.186h3.186v-3.186Zm0-1.593h3.186a1.593,1.593,0,0,1,1.593,1.593v3.186a1.593,1.593,0,0,1-1.593,1.593h-3.186a1.593,1.593,0,0,1-1.593-1.593v-3.186a1.593,1.593,0,0,1,1.593-1.593Z" transform="translate(-282.875 -203.277)" fill="#fff"/>
    <path id="路径_4" data-name="路径 4" d="M144.334,428.1q-.1.079-.187.164h-.528a1.125,1.125,0,0,0,.742-.185Zm-.714-1.429h6.717c.232,0,.993.714,1.7,1.593l9.875,11.151c.412.4.412,1.593-.421,1.593H132.579c-.874,0-.874-1.123-.419-1.593l9.763-11.151c.7-.879,1.464-1.593,1.7-1.593Z" transform="translate(0 -321.899)" fill="#fff"/>
  </g>
</svg>
