<?xml version="1.0" standalone="no"?><!DOCTYPE svg PUBLIC "-//W3C//DTD SVG 1.1//EN" "http://www.w3.org/Graphics/SVG/1.1/DTD/svg11.dtd"><svg t="1651229647765" class="icon" viewBox="0 0 1130 1024" version="1.1" xmlns="http://www.w3.org/2000/svg" p-id="42107" xmlns:xlink="http://www.w3.org/1999/xlink" width="35.3125" height="32"><defs><style type="text/css"></style></defs><path d="M1111.52128 325.579487c-18.379487-23.630769-47.261538-36.758974-78.769231-36.758974H98.023844c-31.507692 0-60.389744 13.128205-78.769231 36.758974-18.379487 23.630769-23.630769 52.512821-15.753846 78.769231l147.035898 506.748718c18.379487 65.641026 84.020513 112.902564 154.91282 112.902564h517.251282c73.517949 0 136.533333-47.261538 154.912821-112.902564l147.035897-506.748718c10.502564-26.25641 5.251282-55.138462-13.128205-78.769231zM1077.387947 380.717949l-149.661539 519.876923c-13.128205 42.010256-52.512821 70.892308-97.148718 70.892307H302.823844c-44.635897 0-86.646154-28.882051-97.148718-70.892307L53.387947 380.717949c-2.625641-7.876923 0-18.379487 5.251282-26.256411 7.876923-7.876923 18.379487-13.128205 28.882051-13.128205h955.733333c10.502564 0 21.005128 5.251282 28.882052 13.128205 5.251282 7.876923 7.876923 18.379487 5.251282 26.256411zM315.952049 341.333333c7.876923 0 13.128205-2.625641 18.379487-7.876923 5.251282-5.251282 7.876923-13.128205 7.876923-21.005128 0-136.533333 102.4-246.810256 225.805129-246.810256s225.805128 110.276923 225.805128 246.810256c0 10.502564 5.251282 21.005128 13.128205 26.25641 7.876923 5.251282 18.379487 5.251282 26.25641 0 7.876923-5.251282 13.128205-15.753846 13.128205-26.25641C841.080254 139.158974 717.675126 0 565.387947 0S289.695639 139.158974 289.695639 309.825641c0 7.876923 2.625641 15.753846 7.876923 21.005128 5.251282 7.876923 10.502564 10.502564 18.379487 10.502564z" fill="#1296db" p-id="42108"></path><path d="M184.669998 485.74359c0 23.630769 13.128205 44.635897 31.507692 57.764102 21.005128 10.502564 44.635897 10.502564 65.641026 0s31.507692-34.133333 31.507692-57.764102-13.128205-44.635897-31.507692-57.764103c-21.005128-10.502564-44.635897-10.502564-65.641026 0-18.379487 13.128205-31.507692 34.133333-31.507692 57.764103zM788.567434 485.74359c0 36.758974 28.882051 65.641026 65.641025 65.641025s65.641026-28.882051 65.641026-65.641025-28.882051-65.641026-65.641026-65.641026-65.641026 28.882051-65.641025 65.641026z" fill="#1296db" p-id="42109"></path></svg>